<svg id="Capa_1" enable-background="new 0 0 501 501" height="512" viewBox="0 0 501 501" width="512" xmlns="http://www.w3.org/2000/svg"><g><path d="m495.5 256c0 135.31-109.69 245-245 245s-245-109.69-245-245 109.69-245 245-245 245 109.69 245 245z" fill="#fd8f01"/><path d="m495.5 256c0 5-.15 9.966-.445 14.892-27.824 79.214-103.281 136.006-192.004 136.006-112.362 0-203.449-91.087-203.449-203.449 0-88.723 56.792-164.18 136.006-192.004 4.926-.295 9.892-.445 14.892-.445 135.31 0 245 109.69 245 245z" fill="#fcb30b"/><path d="m380.651 113.388 11.284-3.305c1.517-.444 2.926.964 2.482 2.482l-3.305 11.284c-.108.367-.108.757 0 1.124l3.305 11.284c.444 1.517-.964 2.926-2.482 2.482l-11.284-3.305c-.367-.108-.757-.108-1.124 0l-11.284 3.305c-1.517.444-2.926-.964-2.482-2.482l3.305-11.284c.108-.367.108-.757 0-1.124l-3.305-11.284c-.444-1.517.964-2.926 2.482-2.482l11.284 3.305c.367.108.757.108 1.124 0z" fill="#fd8f01"/><path d="m445.323 213.45 15.693-4.596c2.11-.618 4.069 1.341 3.451 3.451l-4.596 15.693c-.15.51-.15 1.053 0 1.564l4.596 15.693c.618 2.11-1.341 4.069-3.451 3.451l-15.693-4.596c-.51-.15-1.053-.15-1.564 0l-15.693 4.596c-2.11.618-4.069-1.341-3.451-3.451l4.596-15.693c.15-.51.15-1.053 0-1.564l-4.596-15.693c-.618-2.11 1.341-4.069 3.451-3.451l15.693 4.596c.511.15 1.054.15 1.564 0z" fill="#fdd78d"/><path d="m145.583 149.667v-61.5c0-48.616 39.552-88.167 88.167-88.167s88.167 39.551 88.167 88.167v61.5h-20v-61.5c0-37.587-30.58-68.167-68.167-68.167s-68.167 30.58-68.167 68.167v61.5z" fill="#0280e3"/><path d="m304.562 64.5h-.385c-3.833 0-7.263-2.254-8.92-5.71-10.994-22.923-34.432-38.79-61.507-38.79-6.229 0-12.265.84-18.002 2.412-6.305 1.728-12.498-3.147-12.498-9.685 0-4.454 2.928-8.432 7.223-9.609 7.418-2.033 15.223-3.118 23.277-3.118 35.111 0 65.495 20.63 79.665 50.406 3.112 6.539-1.612 14.094-8.853 14.094z" fill="#05a2f9"/><path d="m335.846 138.787 54.117 54.117c5.626 5.626 8.787 13.257 8.787 21.213v80.883c0 91.127-73.873 165-165 165-91.127 0-165-73.873-165-165v-80.883c0-7.956 3.161-15.587 8.787-21.213l54.117-54.117c5.626-5.626 13.257-8.787 21.213-8.787h161.766c7.957 0 15.587 3.161 21.213 8.787z" fill="#172a7d"/><path d="m170.654 138.787c5.626-5.626 13.257-8.787 21.213-8.787h122.766c7.956 0 15.587 3.161 21.213 8.787l54.117 54.117c5.626 5.626 8.787 13.257 8.787 21.213v80.883c0 84.529-63.564 154.212-145.5 163.859-81.936-9.647-145.5-79.33-145.5-163.859v-80.883c0-7.956 3.161-15.587 8.787-21.213z" fill="#2740af"/><path d="m264.75 236v18c0 10.816-6.604 20.088-16 24.007v96.993c0 8.284-6.716 15-15 15s-15-6.716-15-15v-96.993c-9.396-3.918-16-13.191-16-24.007v-18c0-14.359 11.641-26 26-26h10c14.359 0 26 11.641 26 26z" fill="#172a7d"/><path d="m288.15 276.138c4.287-4.287 10.1-6.695 16.162-6.695h63.822c6.062 0 11.876 2.408 16.162 6.695l41.232 41.232c4.287 4.287 6.695 10.1 6.695 16.162v34.286c0 59.193-40.911 108.831-96 122.181-55.089-13.35-96-62.988-96-122.181v-34.286c0-6.062 2.408-11.876 6.695-16.162z" fill="#0ab59e"/><path d="m265.051 334.349 40.077-40.077h62.19l40.077 40.078v33.47c0 44.705-28.974 83.537-71.172 96.451-42.199-12.914-71.172-51.746-71.172-96.451z" fill="#0ed1b2"/><path d="m367.319 294.271 40.077 40.078v33.47c0 21.106-6.458 40.903-17.717 57.282-48.904-19.553-88.415-57.601-109.882-105.497l25.332-25.332h62.19z" fill="#5de0c3"/><path d="m430.053 311.803-88.421 88.421c-1.464 1.464-3.384 2.197-5.303 2.197s-3.839-.732-5.303-2.197l-42.105-42.105c-2.929-2.929-2.929-7.678 0-10.606 2.929-2.929 7.678-2.929 10.606 0l36.802 36.802 83.118-83.118c2.929-2.929 7.678-2.929 10.606 0 2.929 2.928 2.929 7.677 0 10.606z" fill="#e3f0fb"/><path d="m430.053 311.803-57.303 57.303c-2.929 2.929-7.678 2.929-10.606 0-2.929-2.929-2.929-7.678 0-10.606l57.08-57.08c2.904-2.904 7.674-3.199 10.664-.384 3.093 2.913 3.148 7.784.165 10.767zm-121.704-27.236-11.284-3.305c-1.517-.444-2.926.964-2.482 2.482l3.305 11.284c.108.367.108.757 0 1.124l-3.305 11.284c-.444 1.517.964 2.926 2.482 2.482l11.284-3.305c.367-.108.757-.108 1.124 0l11.284 3.305c1.517.444 2.926-.964 2.482-2.482l-3.305-11.284c-.108-.367-.108-.757 0-1.124l3.305-11.284c.444-1.517-.964-2.926-2.482-2.482l-11.284 3.305c-.367.107-.757.107-1.124 0z" fill="#fff5f5"/></g></svg>