<svg id="Capa_1" enable-background="new 0 0 501 501" height="512" viewBox="0 0 501 501" width="512" xmlns="http://www.w3.org/2000/svg"><g><path d="m495.5 256c0 135.31-109.69 245-245 245s-245-109.69-245-245 109.69-245 245-245 245 109.69 245 245z" fill="#ecb700"/><path d="m74.652 210.424c0-88.818 55.027-164.782 132.849-195.663 13.961-2.471 28.329-3.761 42.999-3.761 127.328 0 231.97 97.132 243.872 221.341-10.961 105.915-100.483 188.507-209.296 188.507-116.214 0-210.424-94.21-210.424-210.424z" fill="#f5c02c"/><path d="m439.009 412.5c-4.309 5.185-8.828 10.189-13.545 15h-349.929c-4.716-4.811-9.235-9.815-13.545-15h181.01v-192.5c0-4.142 3.358-7.5 7.5-7.5 4.143 0 7.5 3.358 7.5 7.5v192.5z" fill="#f57e00"/><path d="m285.5 415c0 19.33-15.67 35-35 35s-35-15.67-35-35 15.67-35 35-35 35 15.67 35 35z" fill="#fff5f5"/><path d="m265.5 415c0 8.284-6.716 15-15 15s-15-6.716-15-15 6.716-15 15-15 15 6.716 15 15z" fill="#f5dc90"/><path d="m277.016 21.597c-1.464 1.464-3.384 2.197-5.303 2.197-1.92 0-3.839-.732-5.304-2.197-4.254-4.254-9.903-6.597-15.909-6.597-6.005 0-11.656 2.343-15.91 6.597-2.929 2.929-7.678 2.929-10.606 0-2.929-2.929-2.929-7.678 0-10.606 7.087-7.088 16.504-10.991 26.516-10.991 10.013 0 19.429 3.903 26.517 10.991 2.928 2.929 2.928 7.677-.001 10.606zm-26.516 2.549c-6.236 0-12.102 2.431-16.517 6.845-2.929 2.929-2.929 7.678 0 10.607 2.929 2.928 7.678 2.929 10.607 0 1.581-1.581 3.68-2.452 5.91-2.452s4.329.871 5.909 2.452c1.465 1.464 3.384 2.197 5.304 2.197 1.919 0 3.839-.732 5.303-2.196 2.93-2.929 2.93-7.678.001-10.607-4.414-4.415-10.28-6.846-16.517-6.846z" fill="#0191f8"/><path d="m391.5 150c8.284 0 15 6.716 15 15v70c0 8.284-6.716 15-15 15 8.284 0 15 6.716 15 15v70c0 8.284-6.716 15-15 15h-282c-8.284 0-15-6.716-15-15v-70c0-8.284 6.716-15 15-15-8.284 0-15-6.716-15-15v-70c0-8.284 6.716-15 15-15-8.284 0-15-6.716-15-15v-70c0-8.284 6.716-15 15-15h282c8.284 0 15 6.716 15 15v70c0 8.284-6.716 15-15 15z" fill="#172a7d"/><path d="m391.5 150h-252c-8.284 0-15 6.716-15 15v50c0 8.284 6.716 15 15 15h252c8.284 0 15-6.716 15-15v-50c0-8.284-6.716-15-15-15zm-162.25 60c0 4.142-3.358 7.5-7.5 7.5s-7.5-3.358-7.5-7.5v-32.5c0-4.142 3.358-7.5 7.5-7.5s7.5 3.358 7.5 7.5zm28.75 0c0 4.142-3.358 7.5-7.5 7.5s-7.5-3.358-7.5-7.5v-32.5c0-4.142 3.358-7.5 7.5-7.5s7.5 3.358 7.5 7.5zm28.75 0c0 4.142-3.358 7.5-7.5 7.5s-7.5-3.358-7.5-7.5v-32.5c0-4.142 3.358-7.5 7.5-7.5s7.5 3.358 7.5 7.5zm104.75 40h-252c-8.284 0-15 6.716-15 15v50c0 8.284 6.716 15 15 15h252c8.284 0 15-6.716 15-15v-50c0-8.284-6.716-15-15-15zm-162.25 60c0 4.142-3.358 7.5-7.5 7.5s-7.5-3.358-7.5-7.5v-32.5c0-4.142 3.358-7.5 7.5-7.5s7.5 3.358 7.5 7.5zm28.75 0c0 4.142-3.358 7.5-7.5 7.5s-7.5-3.358-7.5-7.5v-32.5c0-4.142 3.358-7.5 7.5-7.5s7.5 3.358 7.5 7.5zm28.75 0c0 4.142-3.358 7.5-7.5 7.5s-7.5-3.358-7.5-7.5v-32.5c0-4.142 3.358-7.5 7.5-7.5s7.5 3.358 7.5 7.5zm104.75-260h-252c-8.284 0-15 6.716-15 15v50c0 8.284 6.716 15 15 15h252c8.284 0 15-6.716 15-15v-50c0-8.284-6.716-15-15-15zm-162.25 60c0 4.142-3.358 7.5-7.5 7.5s-7.5-3.358-7.5-7.5v-32.5c0-4.142 3.358-7.5 7.5-7.5s7.5 3.358 7.5 7.5zm28.75 0c0 4.142-3.358 7.5-7.5 7.5s-7.5-3.358-7.5-7.5v-32.5c0-4.142 3.358-7.5 7.5-7.5s7.5 3.358 7.5 7.5zm28.75 0c0 4.142-3.358 7.5-7.5 7.5s-7.5-3.358-7.5-7.5v-32.5c0-4.142 3.358-7.5 7.5-7.5s7.5 3.358 7.5 7.5z" fill="#2740af"/><path d="m195.5 93.75c0 5.523-4.477 10-10 10s-10-4.477-10-10 4.477-10 10-10 10 4.477 10 10zm150 90c-5.523 0-10 4.477-10 10s4.477 10 10 10 10-4.477 10-10-4.477-10-10-10zm-190-100c-5.523 0-10 4.477-10 10s4.477 10 10 10 10-4.477 10-10-4.477-10-10-10zm190 0c-5.523 0-10 4.477-10 10s4.477 10 10 10 10-4.477 10-10-4.477-10-10-10zm-160 100c-5.523 0-10 4.477-10 10s4.477 10 10 10 10-4.477 10-10-4.477-10-10-10zm190 0c-5.523 0-10 4.477-10 10s4.477 10 10 10 10-4.477 10-10-4.477-10-10-10zm-220 100c-5.523 0-10 4.477-10 10s4.477 10 10 10 10-4.477 10-10-4.477-10-10-10zm30 0c-5.523 0-10 4.477-10 10s4.477 10 10 10 10-4.477 10-10-4.477-10-10-10zm160 0c-5.523 0-10 4.477-10 10s4.477 10 10 10 10-4.477 10-10-4.477-10-10-10z" fill="#89e9d9"/><path d="m135.5 93.75c0 5.523-4.477 10-10 10s-10-4.477-10-10 4.477-10 10-10 10 4.477 10 10zm180-10c-5.523 0-10 4.477-10 10s4.477 10 10 10 10-4.477 10-10-4.477-10-10-10zm60 20c5.523 0 10-4.477 10-10s-4.477-10-10-10-10 4.477-10 10 4.477 10 10 10zm-250 80c-5.523 0-10 4.477-10 10s4.477 10 10 10 10-4.477 10-10-4.477-10-10-10zm30 0c-5.523 0-10 4.477-10 10s4.477 10 10 10 10-4.477 10-10-4.477-10-10-10zm160 0c-5.523 0-10 4.477-10 10s4.477 10 10 10 10-4.477 10-10-4.477-10-10-10zm-190 100c-5.523 0-10 4.477-10 10s4.477 10 10 10 10-4.477 10-10-4.477-10-10-10zm190 0c-5.523 0-10 4.477-10 10s4.477 10 10 10 10-4.477 10-10-4.477-10-10-10zm60 0c-5.523 0-10 4.477-10 10s4.477 10 10 10 10-4.477 10-10-4.477-10-10-10z" fill="#05a2f9"/></g></svg>